<mxfile host="app.diagrams.net" modified="2022-05-05T07:53:30.116Z" agent="5.0 (Macintosh; Intel Mac OS X 10_15_7) AppleWebKit/605.1.15 (KHTML, like Gecko) Version/14.1.2 Safari/605.1.15" etag="q9D4VRjApjj82td0-pGN" version="17.5.1" type="github">
  <diagram id="BMjRO5qYmluGinLNsz--" name="Page-1">
    <mxGraphModel dx="378" dy="258" grid="1" gridSize="10" guides="1" tooltips="1" connect="1" arrows="1" fold="1" page="1" pageScale="1" pageWidth="827" pageHeight="1169" math="0" shadow="0">
      <root>
        <mxCell id="0" />
        <mxCell id="1" parent="0" />
        <mxCell id="yWqqmSRFs31MRJI1_xPq-5" value="user" style="swimlane;fontStyle=1;align=center;verticalAlign=top;childLayout=stackLayout;horizontal=1;startSize=26;horizontalStack=0;resizeParent=1;resizeParentMax=0;resizeLast=0;collapsible=1;marginBottom=0;" vertex="1" parent="1">
          <mxGeometry x="270" width="160" height="60" as="geometry" />
        </mxCell>
        <mxCell id="yWqqmSRFs31MRJI1_xPq-6" value="+ user info" style="text;strokeColor=none;fillColor=none;align=left;verticalAlign=top;spacingLeft=4;spacingRight=4;overflow=hidden;rotatable=0;points=[[0,0.5],[1,0.5]];portConstraint=eastwest;" vertex="1" parent="yWqqmSRFs31MRJI1_xPq-5">
          <mxGeometry y="26" width="160" height="26" as="geometry" />
        </mxCell>
        <mxCell id="yWqqmSRFs31MRJI1_xPq-7" value="" style="line;strokeWidth=1;fillColor=none;align=left;verticalAlign=middle;spacingTop=-1;spacingLeft=3;spacingRight=3;rotatable=0;labelPosition=right;points=[];portConstraint=eastwest;" vertex="1" parent="yWqqmSRFs31MRJI1_xPq-5">
          <mxGeometry y="52" width="160" height="8" as="geometry" />
        </mxCell>
        <mxCell id="yWqqmSRFs31MRJI1_xPq-37" style="edgeStyle=orthogonalEdgeStyle;rounded=0;orthogonalLoop=1;jettySize=auto;html=1;entryX=0;entryY=0.25;entryDx=0;entryDy=0;" edge="1" parent="1" source="yWqqmSRFs31MRJI1_xPq-9" target="yWqqmSRFs31MRJI1_xPq-13">
          <mxGeometry relative="1" as="geometry" />
        </mxCell>
        <mxCell id="yWqqmSRFs31MRJI1_xPq-48" style="edgeStyle=orthogonalEdgeStyle;rounded=0;orthogonalLoop=1;jettySize=auto;html=1;entryX=0.538;entryY=0.875;entryDx=0;entryDy=0;entryPerimeter=0;endArrow=block;endFill=0;" edge="1" parent="1" source="yWqqmSRFs31MRJI1_xPq-9" target="yWqqmSRFs31MRJI1_xPq-7">
          <mxGeometry relative="1" as="geometry" />
        </mxCell>
        <mxCell id="yWqqmSRFs31MRJI1_xPq-9" value="Admin" style="swimlane;fontStyle=1;align=center;verticalAlign=top;childLayout=stackLayout;horizontal=1;startSize=26;horizontalStack=0;resizeParent=1;resizeParentMax=0;resizeLast=0;collapsible=1;marginBottom=0;" vertex="1" parent="1">
          <mxGeometry x="60" y="120" width="160" height="90" as="geometry" />
        </mxCell>
        <mxCell id="yWqqmSRFs31MRJI1_xPq-11" value="" style="line;strokeWidth=1;fillColor=none;align=left;verticalAlign=middle;spacingTop=-1;spacingLeft=3;spacingRight=3;rotatable=0;labelPosition=right;points=[];portConstraint=eastwest;" vertex="1" parent="yWqqmSRFs31MRJI1_xPq-9">
          <mxGeometry y="26" width="160" height="8" as="geometry" />
        </mxCell>
        <mxCell id="yWqqmSRFs31MRJI1_xPq-12" value="+ : AdminUser:void&#xa;+ : ManagePw: void&#xa;+ : DeleteAcc: void" style="text;strokeColor=none;fillColor=none;align=left;verticalAlign=top;spacingLeft=4;spacingRight=4;overflow=hidden;rotatable=0;points=[[0,0.5],[1,0.5]];portConstraint=eastwest;" vertex="1" parent="yWqqmSRFs31MRJI1_xPq-9">
          <mxGeometry y="34" width="160" height="56" as="geometry" />
        </mxCell>
        <mxCell id="yWqqmSRFs31MRJI1_xPq-41" style="edgeStyle=orthogonalEdgeStyle;rounded=0;orthogonalLoop=1;jettySize=auto;html=1;entryX=0.5;entryY=0;entryDx=0;entryDy=0;" edge="1" parent="1" source="yWqqmSRFs31MRJI1_xPq-13" target="yWqqmSRFs31MRJI1_xPq-20">
          <mxGeometry relative="1" as="geometry" />
        </mxCell>
        <mxCell id="yWqqmSRFs31MRJI1_xPq-42" style="edgeStyle=orthogonalEdgeStyle;rounded=0;orthogonalLoop=1;jettySize=auto;html=1;" edge="1" parent="1" source="yWqqmSRFs31MRJI1_xPq-13" target="yWqqmSRFs31MRJI1_xPq-16">
          <mxGeometry relative="1" as="geometry" />
        </mxCell>
        <mxCell id="yWqqmSRFs31MRJI1_xPq-13" value="Customer" style="swimlane;fontStyle=1;align=center;verticalAlign=top;childLayout=stackLayout;horizontal=1;startSize=26;horizontalStack=0;resizeParent=1;resizeParentMax=0;resizeLast=0;collapsible=1;marginBottom=0;" vertex="1" parent="1">
          <mxGeometry x="270" y="120" width="160" height="130" as="geometry" />
        </mxCell>
        <mxCell id="yWqqmSRFs31MRJI1_xPq-14" value="" style="line;strokeWidth=1;fillColor=none;align=left;verticalAlign=middle;spacingTop=-1;spacingLeft=3;spacingRight=3;rotatable=0;labelPosition=right;points=[];portConstraint=eastwest;" vertex="1" parent="yWqqmSRFs31MRJI1_xPq-13">
          <mxGeometry y="26" width="160" height="8" as="geometry" />
        </mxCell>
        <mxCell id="yWqqmSRFs31MRJI1_xPq-15" value="+ : Profile:void&#xa;+ : ProfileHeader: void&#xa;+ : FormDialog: void&#xa;+ : Account: void&#xa;+ : Address: void&#xa;+ : AddNewAddress: void" style="text;strokeColor=none;fillColor=none;align=left;verticalAlign=top;spacingLeft=4;spacingRight=4;overflow=hidden;rotatable=0;points=[[0,0.5],[1,0.5]];portConstraint=eastwest;" vertex="1" parent="yWqqmSRFs31MRJI1_xPq-13">
          <mxGeometry y="34" width="160" height="96" as="geometry" />
        </mxCell>
        <mxCell id="yWqqmSRFs31MRJI1_xPq-16" value="Address" style="swimlane;fontStyle=1;align=center;verticalAlign=top;childLayout=stackLayout;horizontal=1;startSize=26;horizontalStack=0;resizeParent=1;resizeParentMax=0;resizeLast=0;collapsible=1;marginBottom=0;" vertex="1" parent="1">
          <mxGeometry x="380" y="300" width="160" height="88" as="geometry" />
        </mxCell>
        <mxCell id="yWqqmSRFs31MRJI1_xPq-17" value="+ college: string&#xa;+ bulding: string&#xa;+ room: string" style="text;strokeColor=none;fillColor=none;align=left;verticalAlign=top;spacingLeft=4;spacingRight=4;overflow=hidden;rotatable=0;points=[[0,0.5],[1,0.5]];portConstraint=eastwest;" vertex="1" parent="yWqqmSRFs31MRJI1_xPq-16">
          <mxGeometry y="26" width="160" height="54" as="geometry" />
        </mxCell>
        <mxCell id="yWqqmSRFs31MRJI1_xPq-18" value="" style="line;strokeWidth=1;fillColor=none;align=left;verticalAlign=middle;spacingTop=-1;spacingLeft=3;spacingRight=3;rotatable=0;labelPosition=right;points=[];portConstraint=eastwest;" vertex="1" parent="yWqqmSRFs31MRJI1_xPq-16">
          <mxGeometry y="80" width="160" height="8" as="geometry" />
        </mxCell>
        <mxCell id="yWqqmSRFs31MRJI1_xPq-20" value="Account" style="swimlane;fontStyle=1;align=center;verticalAlign=top;childLayout=stackLayout;horizontal=1;startSize=26;horizontalStack=0;resizeParent=1;resizeParentMax=0;resizeLast=0;collapsible=1;marginBottom=0;" vertex="1" parent="1">
          <mxGeometry x="170" y="300" width="160" height="158" as="geometry" />
        </mxCell>
        <mxCell id="yWqqmSRFs31MRJI1_xPq-21" value="+ username: string&#xa;+ first name: string&#xa;+ last name: string&#xa;+ faculty: string&#xa;+ phone: float&#xa;+ college: string&#xa;+ gender: string&#xa;+ email : string&#xa;" style="text;strokeColor=none;fillColor=none;align=left;verticalAlign=top;spacingLeft=4;spacingRight=4;overflow=hidden;rotatable=0;points=[[0,0.5],[1,0.5]];portConstraint=eastwest;" vertex="1" parent="yWqqmSRFs31MRJI1_xPq-20">
          <mxGeometry y="26" width="160" height="124" as="geometry" />
        </mxCell>
        <mxCell id="yWqqmSRFs31MRJI1_xPq-22" value="" style="line;strokeWidth=1;fillColor=none;align=left;verticalAlign=middle;spacingTop=-1;spacingLeft=3;spacingRight=3;rotatable=0;labelPosition=right;points=[];portConstraint=eastwest;" vertex="1" parent="yWqqmSRFs31MRJI1_xPq-20">
          <mxGeometry y="150" width="160" height="8" as="geometry" />
        </mxCell>
        <mxCell id="yWqqmSRFs31MRJI1_xPq-28" value="Profile Icon" style="swimlane;fontStyle=1;align=center;verticalAlign=top;childLayout=stackLayout;horizontal=1;startSize=26;horizontalStack=0;resizeParent=1;resizeParentMax=0;resizeLast=0;collapsible=1;marginBottom=0;" vertex="1" parent="1">
          <mxGeometry x="560" y="300" width="160" height="60" as="geometry" />
        </mxCell>
        <mxCell id="yWqqmSRFs31MRJI1_xPq-29" value="+ pic: string" style="text;strokeColor=none;fillColor=none;align=left;verticalAlign=top;spacingLeft=4;spacingRight=4;overflow=hidden;rotatable=0;points=[[0,0.5],[1,0.5]];portConstraint=eastwest;" vertex="1" parent="yWqqmSRFs31MRJI1_xPq-28">
          <mxGeometry y="26" width="160" height="26" as="geometry" />
        </mxCell>
        <mxCell id="yWqqmSRFs31MRJI1_xPq-30" value="" style="line;strokeWidth=1;fillColor=none;align=left;verticalAlign=middle;spacingTop=-1;spacingLeft=3;spacingRight=3;rotatable=0;labelPosition=right;points=[];portConstraint=eastwest;" vertex="1" parent="yWqqmSRFs31MRJI1_xPq-28">
          <mxGeometry y="52" width="160" height="8" as="geometry" />
        </mxCell>
        <mxCell id="yWqqmSRFs31MRJI1_xPq-32" value="Canteen" style="swimlane;fontStyle=1;align=center;verticalAlign=top;childLayout=stackLayout;horizontal=1;startSize=26;horizontalStack=0;resizeParent=1;resizeParentMax=0;resizeLast=0;collapsible=1;marginBottom=0;" vertex="1" parent="1">
          <mxGeometry x="490" y="120" width="160" height="80" as="geometry" />
        </mxCell>
        <mxCell id="yWqqmSRFs31MRJI1_xPq-34" value="" style="line;strokeWidth=1;fillColor=none;align=left;verticalAlign=middle;spacingTop=-1;spacingLeft=3;spacingRight=3;rotatable=0;labelPosition=right;points=[];portConstraint=eastwest;" vertex="1" parent="yWqqmSRFs31MRJI1_xPq-32">
          <mxGeometry y="26" width="160" height="8" as="geometry" />
        </mxCell>
        <mxCell id="yWqqmSRFs31MRJI1_xPq-35" value="+ Profile: void&#xa;+ RestaurantProfile: void" style="text;strokeColor=none;fillColor=none;align=left;verticalAlign=top;spacingLeft=4;spacingRight=4;overflow=hidden;rotatable=0;points=[[0,0.5],[1,0.5]];portConstraint=eastwest;" vertex="1" parent="yWqqmSRFs31MRJI1_xPq-32">
          <mxGeometry y="34" width="160" height="46" as="geometry" />
        </mxCell>
        <mxCell id="yWqqmSRFs31MRJI1_xPq-40" value="check profile" style="text;html=1;strokeColor=none;fillColor=none;align=center;verticalAlign=middle;whiteSpace=wrap;rounded=0;" vertex="1" parent="1">
          <mxGeometry x="210" y="170" width="60" height="30" as="geometry" />
        </mxCell>
        <mxCell id="yWqqmSRFs31MRJI1_xPq-44" style="edgeStyle=orthogonalEdgeStyle;rounded=0;orthogonalLoop=1;jettySize=auto;html=1;entryX=0.5;entryY=0;entryDx=0;entryDy=0;" edge="1" parent="1" source="yWqqmSRFs31MRJI1_xPq-15" target="yWqqmSRFs31MRJI1_xPq-28">
          <mxGeometry relative="1" as="geometry">
            <Array as="points">
              <mxPoint x="350" y="270" />
              <mxPoint x="640" y="270" />
            </Array>
          </mxGeometry>
        </mxCell>
        <mxCell id="yWqqmSRFs31MRJI1_xPq-46" style="edgeStyle=orthogonalEdgeStyle;rounded=0;orthogonalLoop=1;jettySize=auto;html=1;entryX=1;entryY=0.5;entryDx=0;entryDy=0;" edge="1" parent="1" source="yWqqmSRFs31MRJI1_xPq-35" target="yWqqmSRFs31MRJI1_xPq-29">
          <mxGeometry relative="1" as="geometry" />
        </mxCell>
        <mxCell id="yWqqmSRFs31MRJI1_xPq-51" value="" style="endArrow=none;html=1;rounded=0;" edge="1" parent="1" source="yWqqmSRFs31MRJI1_xPq-13">
          <mxGeometry width="50" height="50" relative="1" as="geometry">
            <mxPoint x="400" y="290" as="sourcePoint" />
            <mxPoint x="350" y="90" as="targetPoint" />
          </mxGeometry>
        </mxCell>
      </root>
    </mxGraphModel>
  </diagram>
</mxfile>
